<svg width="29" height="29" viewBox="0 0 29 29" fill="none" xmlns="http://www.w3.org/2000/svg">
<path d="M18.85 14.5L13.05 8.7L13.05 20.3L18.85 14.5ZM29 14.5C29 16.5058 28.6191 18.3908 27.8574 20.155C27.0966 21.9192 26.0638 23.4537 24.7588 24.7587C23.4538 26.0637 21.9192 27.0966 20.155 27.8574C18.3908 28.6191 16.5058 29 14.5 29C12.4942 29 10.6092 28.6191 8.845 27.8574C7.08083 27.0966 5.54625 26.0637 4.24125 24.7587C2.93625 23.4537 1.90288 21.9192 1.14115 20.155C0.380383 18.3908 1.48991e-07 16.5058 1.72911e-07 14.5C1.9683e-07 12.4942 0.380383 10.6092 1.14115 8.845C1.90288 7.08083 2.93625 5.54625 4.24125 4.24125C5.54625 2.93625 7.08083 1.90337 8.845 1.1426C10.6092 0.380866 12.4942 -8.04683e-07 14.5 -7.80764e-07C16.5058 -7.56844e-07 18.3908 0.380866 20.155 1.1426C21.9192 1.90337 23.4538 2.93625 24.7588 4.24125C26.0638 5.54625 27.0966 7.08083 27.8574 8.845C28.6191 10.6092 29 12.4942 29 14.5Z" fill="#1C9FF3"/>
</svg>
