<svg width="29" height="29" viewBox="0 0 29 29" fill="none" xmlns="http://www.w3.org/2000/svg">
<path d="M10.15 14.5L15.95 20.3L15.95 8.7L10.15 14.5ZM1.27353e-06 14.5C1.36121e-06 12.4942 0.380868 10.6092 1.1426 8.845C1.90337 7.08083 2.93625 5.54625 4.24125 4.24125C5.54625 2.93625 7.08084 1.90337 8.845 1.1426C10.6092 0.380866 12.4942 -7.21493e-07 14.5 -6.33815e-07C16.5058 -5.46137e-07 18.3908 0.380866 20.155 1.1426C21.9192 1.90337 23.4538 2.93625 24.7587 4.24125C26.0637 5.54625 27.0971 7.08083 27.8588 8.845C28.6196 10.6092 29 12.4942 29 14.5C29 16.5058 28.6196 18.3908 27.8588 20.155C27.0971 21.9192 26.0637 23.4538 24.7587 24.7588C23.4537 26.0638 21.9192 27.0966 20.155 27.8574C18.3908 28.6191 16.5058 29 14.5 29C12.4942 29 10.6092 28.6191 8.845 27.8574C7.08083 27.0966 5.54625 26.0638 4.24125 24.7588C2.93625 23.4538 1.90337 21.9192 1.1426 20.155C0.380868 18.3908 1.18586e-06 16.5058 1.27353e-06 14.5Z" fill="#E5E6E7"/>
</svg>
